<svg width="339" height="70" viewBox="0 0 339 70" fill="none" xmlns="http://www.w3.org/2000/svg">
<path d="M271.289 18.166L266.221 23.2344L265.781 23.6738L266.221 24.1133L270.439 28.3027L270.85 28.7422L271.289 28.3027L275.479 24.1426L275.625 23.9961L275.742 24.1133L279.961 28.3027L280.4 28.7422L280.84 28.3027L285 24.1426L285.439 23.7031L285 23.2637L279.961 18.2246M9.31641 50.627C9.31641 52.7559 9.75586 54.5137 10.6348 55.9004C11.4941 57.2871 12.8613 58.332 14.7363 59.0352C16.6309 59.7578 19.0527 60.1289 22.002 60.1484C25.3027 60.1484 28.2422 59.5527 30.8203 58.3613C32.1094 57.7559 33.2422 56.9551 34.2188 55.959C35.0391 55.1191 35.4688 54.1328 35.5078 53C35.5078 52.8633 35.498 52.7754 35.4785 52.7363C35.4199 52.5801 35.0488 52.502 34.3652 52.502L31.0547 52.4727C28.3789 52.4531 26.3086 51.8574 24.8438 50.6855C23.3398 49.4746 22.5879 47.7363 22.5879 45.4707C22.5879 41.4668 23.8672 38.0781 26.4258 35.3047C29.668 31.75 34.209 29.9727 40.0488 29.9727H40.6641H41.8359V31.1738V36.7988V37.9707H40.6641H40.0195C37.1289 37.9707 34.7656 38.6152 32.9297 39.9043C31.25 41.0762 30.3516 42.5605 30.2344 44.3574C30.2344 44.5527 30.2539 44.6602 30.293 44.6797C30.3906 44.7773 30.6641 44.8262 31.1133 44.8262H34.5996C36.2988 44.8066 37.7441 45.0605 38.9355 45.5879C40.1465 46.1152 41.0742 46.9062 41.7188 47.9609C42.3828 49.0156 42.7148 50.3047 42.7148 51.8281C42.7148 54.875 41.9434 57.5312 40.4004 59.7969C38.8574 62.0625 36.5918 63.8789 33.6035 65.2461C31.8652 66.0469 30.0195 66.6426 28.0664 67.0332C26.0938 67.4238 24.0234 67.6191 21.8555 67.6191C15.3516 67.6191 10.3906 66.1934 6.97266 63.3418C3.55469 60.4902 1.8457 56.2812 1.8457 50.7148C1.8457 46.3594 3.24219 41.0273 6.03516 34.7188L6.50391 33.6934L7.55859 34.1328L12.1875 36.0371L13.3008 36.5059L12.832 37.5898C10.4883 42.8828 9.31641 47.2285 9.31641 50.627ZM56.0156 52.9707C53.3203 52.9707 50.459 52.6875 47.4316 52.1211L46.4648 51.9453V50.9492V45.5586V44.123L47.8711 44.416C50.5273 44.9629 53.291 45.2363 56.1621 45.2363C57.373 45.2363 58.4473 45.1875 59.3848 45.0898C60.3418 44.9727 61.1133 44.8262 61.6992 44.6504C62.3047 44.4551 62.793 44.2207 63.1641 43.9473C63.5547 43.6738 63.8281 43.4004 63.9844 43.127C64.1406 42.834 64.2188 42.5215 64.2188 42.1895C64.2188 41.7402 63.9941 40.832 63.5449 39.4648C63.0957 38.0977 62.4609 36.4277 61.6406 34.4551L57.9199 25.666L57.4805 24.6113L58.5059 24.1426L63.3398 21.916L64.4531 21.3887L64.9219 22.5605L70.7227 37.2676C71.7969 40.002 72.8516 42.0234 73.8867 43.332C74.9219 44.6211 75.8105 45.2656 76.5527 45.2656C79.4629 45.2656 83.8184 45.002 84.7559 44.4746C86.0254 43.7324 86.6602 42.0332 86.6602 39.377C86.6602 37.1504 86.3184 34.6602 85.6348 31.9062L85.3418 30.7637L86.4844 30.5L91.2598 29.2988L92.3145 29.0059L92.666 30.0605C93.6426 33.2246 94.1309 36.3008 94.1309 39.2891C94.1113 44.4648 92.5879 48.2051 89.5605 50.5098C88.9746 50.9395 88.3105 51.3203 87.5684 51.6523C86.8457 51.9648 86.0352 52.2188 85.1367 52.4141C84.2578 52.6094 83.3105 52.7559 82.2949 52.8535C81.2793 52.9512 80.1758 53 78.9844 53H76.5527C73.3496 53 70.7422 51.6621 68.7305 48.9863C65.8594 51.6426 61.6211 52.9707 56.0156 52.9707ZM81.7676 20.1582L86.0449 15.8809L86.4844 15.4414L86.9238 15.8809L91.2012 20.1875L91.6406 20.627L91.2012 21.0664L86.9531 25.3145L86.5137 25.7539L86.0742 25.3145L81.7676 21.0371L81.3281 20.5977L81.7676 20.1582ZM113.086 45.0605C112.949 43.6348 112.744 42.4141 112.471 41.3984C112.197 40.3828 111.865 39.582 111.475 38.9961C111.084 38.4102 110.654 37.9902 110.186 37.7363C109.736 37.4629 109.229 37.3262 108.662 37.3262C108.232 37.3262 107.852 37.4043 107.52 37.5605C107.188 37.7168 106.865 38 106.553 38.4102C106.26 38.8203 105.996 39.3672 105.762 40.0508C105.449 40.9883 105.293 41.8574 105.293 42.6582C105.293 43.6348 105.625 44.3574 106.289 44.8262C106.953 45.2754 108.154 45.5 109.893 45.5C110.908 45.4805 111.973 45.334 113.086 45.0605ZM109.863 53.0586C106.074 53.0586 103.145 52.2188 101.074 50.5391C99.0234 48.8398 97.998 46.3594 97.998 43.0977C97.998 40.5586 98.5449 38.1465 99.6387 35.8613C100.635 33.7715 101.924 32.1797 103.506 31.0859C105.107 29.9922 106.943 29.4453 109.014 29.4453C110.518 29.4453 111.885 29.7383 113.115 30.3242C114.346 30.9102 115.42 31.7598 116.338 32.873C117.275 33.9668 118.047 35.3145 118.652 36.916C119.902 40.1387 120.518 43.7422 120.498 47.7266C120.459 53.5078 118.633 58.0488 115.02 61.3496C111.426 64.6504 106.182 66.6523 99.2871 67.3555L98.291 67.4434L98.0566 66.4766L96.7969 61.4961L96.4746 60.1777L97.8223 60.0312C105.479 59.25 110.342 56.8574 112.412 52.8535C111.729 52.9316 111.191 52.9805 110.801 53C110.43 53.0391 110.117 53.0586 109.863 53.0586ZM138.281 53C134.18 53 131.064 51.8086 128.936 49.4258C126.807 47.0234 125.742 43.5859 125.742 39.1133V12.043V10.8711H126.914H132.012H133.184V12.043V39.0547C133.184 41.2617 133.594 42.8535 134.414 43.8301C135.254 44.7871 137.217 45.2656 139.014 45.2656C140.049 45.2656 140.947 45.1973 141.709 45.0605C142.471 44.9238 143.076 44.7285 143.525 44.4746C143.994 44.2012 144.346 43.8984 144.58 43.5664C144.834 43.2148 145 42.8145 145.078 42.3652C145.293 41.252 145.322 39.6113 145.166 37.4434L145.02 35.041L144.932 33.9277L146.045 33.8105L150.879 33.2246L152.08 33.1074L152.168 34.3086L152.695 41.1055C152.715 41.3984 152.744 41.6719 152.783 41.9258C152.822 42.1797 152.861 42.4141 152.9 42.6289C152.959 42.8242 153.018 43.0098 153.076 43.1855C153.135 43.3613 153.193 43.5176 153.252 43.6543C153.33 43.7715 153.398 43.8691 153.457 43.9473C155.762 40.1777 158.027 37.0332 160.254 34.5137C162.48 31.9746 164.746 30.041 167.051 28.7129C169.355 27.3848 171.65 26.7305 173.936 26.75C176.162 26.75 178.145 27.1797 179.883 28.0391C181.641 28.8984 183.115 30.1777 184.307 31.877C185.732 33.9473 186.436 36.2129 186.416 38.6738C186.416 39.8262 186.279 41.0371 186.006 42.3066C184.346 49.4355 176.943 53 163.799 53H162.305C159.043 53 156.289 52.7168 154.043 52.1504C151.816 51.584 150.098 50.6758 148.887 49.4258C146.582 51.8086 142.559 53 138.281 53ZM168.633 16.7305L172.91 12.4531L173.35 12.0137L173.789 12.4531L178.066 16.7598L178.506 17.1992L178.066 17.6387L173.818 21.8867L173.379 22.3262L172.939 21.8867L168.633 17.6094L168.193 17.1699L168.633 16.7305ZM161.631 45.2656H163.975C169.209 45.2656 172.93 44.7676 175.137 43.7715C175.996 43.4004 176.689 42.9805 177.217 42.5117C177.744 42.043 178.125 41.5254 178.359 40.959C178.594 40.3926 178.721 39.748 178.74 39.0254C178.74 38.0293 178.477 37.1895 177.949 36.5059C177.031 35.3145 175.723 34.709 174.023 34.6895C172.93 34.709 171.748 35.0801 170.479 35.8027C169.229 36.5254 167.842 37.6875 166.318 39.2891C164.814 40.8711 163.252 42.8633 161.631 45.2656ZM202.998 35.7734C204.697 39.6602 205.547 43.4102 205.547 47.0234C205.547 53 203.721 57.6973 200.068 61.1152C196.416 64.5332 191.064 66.6133 184.014 67.3555L182.988 67.4727L182.754 66.4766L181.494 61.4961L181.172 60.1777L182.52 60.0312C187.852 59.5039 191.777 58.1855 194.297 56.0762C196.816 53.9863 198.066 51.0859 198.047 47.375C198.047 44.5625 197.324 41.6035 195.879 38.498L195.322 37.3262L196.553 36.8867L201.533 35.1582L202.559 34.7773L202.998 35.7734ZM270.938 15.3828L275.098 11.1934L275.537 10.7539L275.977 11.1934L280.166 15.4121L280.605 15.8516L280.166 16.291L276.006 20.4512L275.566 20.8906L275.127 20.4512L270.938 16.2617L270.498 15.8223L270.938 15.3828ZM269.092 53C267.451 53 266.016 52.7266 264.785 52.1797C264.512 54.3477 263.867 56.5156 262.852 58.6836C259.785 65.0508 253.604 68.2344 244.307 68.2344C238.154 68.2344 233.467 66.7402 230.244 63.752C227.021 60.7832 225.41 56.4082 225.41 50.627C225.41 46.4668 226.426 41.9355 228.457 37.0332L228.896 35.9492L229.98 36.3887L234.639 38.293L235.693 38.7324L235.283 39.8164C233.701 43.8203 232.91 47.4043 232.91 50.5684C232.91 54.0254 233.838 56.5742 235.693 58.2148C237.568 59.875 240.508 60.7051 244.512 60.7051C248.887 60.7051 251.43 59.4336 253.5 57.5C255.57 55.5664 257.295 52.8828 257.314 48.8398C257.314 45.4219 256.465 41.9844 254.766 38.5273L254.209 37.3262L255.439 36.8867L260.508 35.1289L261.65 34.748L262.002 35.8906L263.76 41.3105C264.053 42.209 264.434 42.9414 264.902 43.5078C265.371 44.0547 265.947 44.4648 266.631 44.7383C267.334 45.0117 268.164 45.1484 269.121 45.1484C270.762 45.1484 271.924 44.8066 272.607 44.123C273.311 43.4395 273.652 42.3066 273.633 40.7246C273.633 39.123 273.604 38.0391 273.545 37.4727L273.398 35.6855L273.311 34.543L274.424 34.4258L279.258 33.8691L280.488 33.7227L280.547 34.9531L281.045 41.7207C281.123 42.9707 281.426 43.8594 281.953 44.3867C282.48 44.8945 283.33 45.1484 284.502 45.1484C285.576 45.1289 286.367 44.7578 286.875 44.0352C287.402 43.293 287.656 41.9941 287.637 40.1387C287.637 39.6699 287.607 39.1719 287.549 38.6445C287.51 38.1172 287.441 37.5605 287.344 36.9746C287.246 36.3691 287.119 35.7344 286.963 35.0703C286.807 34.4062 286.621 33.7129 286.406 32.9902L286.084 31.8477L287.227 31.5254L292.236 30.1777L293.32 29.8848L293.672 30.9688C294.668 34.1523 295.156 37.1992 295.137 40.1094C295.137 42.4531 294.805 44.5234 294.141 46.3203C293.496 48.0977 292.51 49.5723 291.182 50.7441C290.322 51.4863 289.336 52.043 288.223 52.4141C287.109 52.7852 285.889 52.9707 284.561 52.9707C282.939 52.9707 281.504 52.707 280.254 52.1797C279.004 51.6328 277.998 50.8223 277.236 49.748C275.107 51.916 272.393 53 269.092 53ZM311.807 35.7734C313.506 39.6602 314.355 43.4102 314.355 47.0234C314.355 53 312.529 57.6973 308.877 61.1152C305.225 64.5332 299.873 66.6133 292.822 67.3555L291.797 67.4727L291.562 66.4766L290.303 61.4961L289.98 60.1777L291.328 60.0312C296.66 59.5039 300.586 58.1855 303.105 56.0762C305.625 53.9863 306.875 51.0859 306.855 47.375C306.855 44.5625 306.133 41.6035 304.688 38.498L304.131 37.3262L305.361 36.8867L310.342 35.1582L311.367 34.7773L311.807 35.7734ZM323.32 15.1191H328.389H329.561V16.1738V51.916V52.9707H328.389H323.32H322.148V51.916V16.1738V15.1191H323.32ZM323.35 9.96289C322.373 9.82617 321.436 9.97266 320.537 10.4023C319.639 10.8125 318.76 11.5156 317.9 12.5117L317.49 13.0098L317.051 12.541L314.062 8.82031L313.74 8.49805L314.004 8.08789C316.465 4.57227 319.473 3.09766 323.027 3.66406L327.393 4.36719C329.17 4.66016 331.191 4.23047 333.457 3.07812L333.984 2.81445L334.248 3.37109L336.182 7.94141L336.387 8.41016L335.947 8.70312C333.33 10.3438 330.498 10.9492 327.451 10.5195L323.35 9.96289Z" stroke="black" stroke-width="3"/>
</svg>
