<svg width="339" height="70" viewBox="0 0 339 70" fill="none" xmlns="http://www.w3.org/2000/svg">
<path d="M9.4707 50.8125C9.4707 52.9414 9.91016 54.6992 10.7891 56.0859C11.6484 57.4726 13.0156 58.5176 14.8906 59.2207C16.7852 59.9433 19.207 60.3144 22.1562 60.334C25.457 60.334 28.3965 59.7383 30.9746 58.5469C32.2637 57.9414 33.3965 57.1406 34.373 56.1445C35.1934 55.3047 35.623 54.3183 35.6621 53.1855C35.6621 53.0488 35.6523 52.9609 35.6328 52.9219C35.5742 52.7656 35.2031 52.6875 34.5195 52.6875L31.209 52.6582C28.5332 52.6387 26.4629 52.043 24.998 50.8711C23.4941 49.6601 22.7422 47.9219 22.7422 45.6562C22.7422 41.6523 24.0215 38.2637 26.5801 35.4902C29.8223 31.9355 34.3633 30.1582 40.2031 30.1582H40.8184H41.9902V31.3594V36.9844V38.1562H40.8184H40.1738C37.2832 38.1562 34.9199 38.8008 33.084 40.0898C31.4043 41.2617 30.5059 42.7461 30.3887 44.543C30.3887 44.7383 30.4082 44.8457 30.4473 44.8652C30.5449 44.9629 30.8184 45.0117 31.2676 45.0117H34.7539C36.4531 44.9922 37.8984 45.2461 39.0898 45.7734C40.3008 46.3008 41.2285 47.0918 41.873 48.1465C42.5371 49.2012 42.8691 50.4902 42.8691 52.0137C42.8691 55.0605 42.0977 57.7168 40.5547 59.9824C39.0117 62.248 36.7461 64.0644 33.7578 65.4316C32.0195 66.2324 30.1738 66.8281 28.2207 67.2187C26.248 67.6094 24.1777 67.8047 22.0098 67.8047C15.5059 67.8047 10.5449 66.3789 7.12695 63.5273C3.70898 60.6758 2 56.4668 2 50.9004C2 46.5449 3.39648 41.2129 6.18945 34.9043L6.6582 33.8789L7.71289 34.3184L12.3418 36.2226L13.4551 36.6914L12.9863 37.7754C10.6426 43.0683 9.4707 47.4141 9.4707 50.8125Z" stroke="black" stroke-width="3"/>
<path d="M81.9219 20.3438L86.1992 16.0664L86.6387 15.627L87.0781 16.0664L91.3555 20.3731L91.7949 20.8125L91.3555 21.252L87.1074 25.5L86.668 25.9395L86.2285 25.5L81.9219 21.2227L81.4824 20.7832L81.9219 20.3438Z" stroke="black" stroke-width="3"/>
<path d="M113.24 45.2461C113.104 43.8203 112.898 42.5996 112.625 41.584C112.352 40.5683 112.02 39.7676 111.629 39.1816C111.238 38.5957 110.809 38.1758 110.34 37.9219C109.891 37.6484 109.383 37.5117 108.816 37.5117C108.387 37.5117 108.006 37.5898 107.674 37.7461C107.342 37.9023 107.02 38.1855 106.707 38.5957C106.414 39.0058 106.15 39.5527 105.916 40.2363C105.604 41.1738 105.447 42.043 105.447 42.8437C105.447 43.8203 105.779 44.543 106.443 45.0117C107.107 45.4609 108.309 45.6855 110.047 45.6855C111.062 45.666 112.127 45.5195 113.24 45.2461ZM110.018 53.2441C106.229 53.2441 103.299 52.4043 101.229 50.7246C99.1777 49.0254 98.1523 46.5449 98.1523 43.2832C98.1523 40.7441 98.6992 38.332 99.793 36.0469C100.789 33.957 102.078 32.3652 103.66 31.2715C105.262 30.1777 107.098 29.6309 109.168 29.6309C110.672 29.6309 112.039 29.9238 113.27 30.5098C114.5 31.0957 115.574 31.9453 116.492 33.0586C117.43 34.1523 118.201 35.5 118.807 37.1016C120.057 40.3242 120.672 43.9277 120.652 47.9121C120.613 53.6933 118.787 58.2344 115.174 61.5351C111.58 64.8359 106.336 66.8379 99.4414 67.541L98.4453 67.6289L98.2109 66.6621L96.9512 61.6816L96.6289 60.3633L97.9766 60.2168C105.633 59.4355 110.496 57.043 112.566 53.0391C111.883 53.1172 111.346 53.166 110.955 53.1855C110.584 53.2246 110.271 53.2441 110.018 53.2441Z" stroke="black" stroke-width="3"/>
<path d="M168.787 16.916L173.064 12.6387L173.504 12.1992L173.943 12.6387L178.221 16.9453L178.66 17.3848L178.221 17.8242L173.973 22.0723L173.533 22.5117L173.094 22.0723L168.787 17.7949L168.348 17.3555L168.787 16.916ZM161.785 45.4512H164.129C169.363 45.4512 173.084 44.9531 175.291 43.957C176.15 43.5859 176.844 43.166 177.371 42.6973C177.898 42.2285 178.279 41.7109 178.514 41.1445C178.748 40.5781 178.875 39.9336 178.895 39.2109C178.895 38.2148 178.631 37.375 178.104 36.6914C177.186 35.5 175.877 34.8945 174.178 34.875C173.084 34.8945 171.902 35.2656 170.633 35.9883C169.383 36.7109 167.996 37.873 166.473 39.4746C164.969 41.0566 163.406 43.0488 161.785 45.4512Z" stroke="black" stroke-width="3"/>
<path d="M203.152 35.959C204.852 39.8457 205.701 43.5957 205.701 47.209C205.701 53.1855 203.875 57.8828 200.223 61.3008C196.57 64.7187 191.219 66.7988 184.168 67.541L183.143 67.6582L182.908 66.6621L181.648 61.6816L181.326 60.3633L182.674 60.2168C188.006 59.6894 191.932 58.3711 194.451 56.2617C196.971 54.1719 198.221 51.2715 198.201 47.5605C198.201 44.748 197.479 41.7891 196.033 38.6836L195.477 37.5117L196.707 37.0723L201.688 35.3437L202.713 34.9629L203.152 35.959Z" stroke="black" stroke-width="3"/>
<path d="M269.246 53.1855C267.605 53.1855 266.17 52.9121 264.939 52.3652C264.666 54.5332 264.021 56.7012 263.006 58.8691C259.939 65.2363 253.758 68.4199 244.461 68.4199C238.309 68.4199 233.621 66.9258 230.398 63.9375C227.176 60.9687 225.564 56.5937 225.564 50.8125C225.564 46.6523 226.58 42.1211 228.611 37.2187L229.051 36.1348L230.135 36.5742L234.793 38.4785L235.848 38.918L235.438 40.0019C233.855 44.0058 233.064 47.5898 233.064 50.7539C233.064 54.2109 233.992 56.7598 235.848 58.4004C237.723 60.0605 240.662 60.8906 244.666 60.8906C249.041 60.8906 251.584 59.6191 253.654 57.6855C255.725 55.7519 257.449 53.0683 257.469 49.0254C257.469 45.6074 256.619 42.1699 254.92 38.7129L254.363 37.5117L255.594 37.0723L260.662 35.3144L261.805 34.9336L262.156 36.0762L263.914 41.4961C264.207 42.3945 264.588 43.1269 265.057 43.6933C265.525 44.2402 266.102 44.6504 266.785 44.9238C267.488 45.1973 268.318 45.334 269.275 45.334C270.916 45.334 272.078 44.9922 272.762 44.3086C273.465 43.625 273.807 42.4922 273.787 40.9101C273.787 39.3086 273.758 38.2246 273.699 37.6582L273.553 35.8711L273.465 34.7285L274.578 34.6113L279.412 34.0547L280.643 33.9082L280.701 35.1387L281.199 41.9062C281.277 43.1562 281.58 44.0449 282.107 44.5723C282.635 45.0801 283.484 45.334 284.656 45.334C285.73 45.3144 286.521 44.9433 287.029 44.2207C287.557 43.4785 287.811 42.1797 287.791 40.3242C287.791 39.8555 287.762 39.3574 287.703 38.8301C287.664 38.3027 287.596 37.7461 287.498 37.1601C287.4 36.5547 287.273 35.9199 287.117 35.2558C286.961 34.5918 286.775 33.8984 286.561 33.1758L286.238 32.0332L287.381 31.7109L292.391 30.3633L293.475 30.0703L293.826 31.1543C294.822 34.3379 295.311 37.3848 295.291 40.2949C295.291 42.6387 294.959 44.709 294.295 46.5058C293.65 48.2832 292.664 49.7578 291.336 50.9297C290.477 51.6719 289.49 52.2285 288.377 52.5996C287.264 52.9707 286.043 53.1562 284.715 53.1562C283.094 53.1562 281.658 52.8926 280.408 52.3652C279.158 51.8183 278.152 51.0078 277.391 49.9336C275.262 52.1016 272.547 53.1855 269.246 53.1855Z" stroke="black" stroke-width="3"/>
<path d="M311.961 35.959C313.66 39.8457 314.51 43.5957 314.51 47.209C314.51 53.1855 312.684 57.8828 309.031 61.3008C305.379 64.7187 300.027 66.7988 292.977 67.541L291.951 67.6582L291.717 66.6621L290.457 61.6816L290.135 60.3633L291.482 60.2168C296.814 59.6894 300.74 58.3711 303.26 56.2617C305.779 54.1719 307.029 51.2715 307.01 47.5605C307.01 44.748 306.287 41.7891 304.842 38.6836L304.285 37.5117L305.516 37.0723L310.496 35.3437L311.521 34.9629L311.961 35.959Z" stroke="black" stroke-width="3"/>
<path d="M323.475 15.3047H328.543H329.715V16.3594V52.1016V53.1562H328.543H323.475H322.303V52.1016V16.3594V15.3047H323.475ZM323.504 10.1485C322.527 10.0117 321.59 10.1582 320.691 10.5879C319.793 10.9981 318.914 11.7012 318.055 12.6973L317.645 13.1953L317.205 12.7266L314.217 9.00588L313.895 8.68361L314.158 8.27346C316.619 4.75783 319.627 3.28324 323.182 3.84964L327.547 4.55276C329.324 4.84573 331.346 4.41605 333.611 3.2637L334.139 3.00003L334.402 3.55667L336.336 8.12697L336.541 8.59572L336.102 8.88869C333.484 10.5293 330.652 11.1348 327.605 10.7051L323.504 10.1485Z" stroke="black" stroke-width="3"/>
<path d="M262.281 18.7324L266.559 14.4551L266.998 14.0156L267.438 14.4551L271.715 18.7617L272.154 19.2012L271.715 19.6406L267.467 23.8887L267.027 24.3281L266.588 23.8887L262.281 19.6113L261.842 19.1719L262.281 18.7324Z" stroke="black" stroke-width="3"/>
<path d="M279.281 18.7324L283.559 14.4551L283.998 14.0156L284.438 14.4551L288.715 18.7617L289.154 19.2012L288.715 19.6406L284.467 23.8887L284.027 24.3281L283.588 23.8887L279.281 19.6113L278.842 19.1719L279.281 18.7324Z" stroke="black" stroke-width="3"/>
<path d="M270.836 9.9199L275.113 5.64256L275.553 5.20311L275.992 5.64256L280.27 9.9492L280.709 10.3887L280.27 10.8281L276.021 15.0762L275.582 15.5156L275.143 15.0762L270.836 10.7988L270.396 10.3594L270.836 9.9199Z" stroke="black" stroke-width="3"/>
</svg>
