<svg width="339" height="70" viewBox="0 0 339 70" fill="none" xmlns="http://www.w3.org/2000/svg">
<path d="M77.1035 45.2656H76.5176C75.7754 45.2656 74.8867 44.6211 73.8516 43.332C72.8164 42.0234 71.7617 40.002 70.6875 37.2676L64.8867 22.5605L64.418 21.3887L63.3047 21.916L58.4707 24.1426L57.4453 24.6113L57.8848 25.666L61.6055 34.4551C62.4258 36.4277 63.0605 38.0977 63.5098 39.4648C63.959 40.832 64.1836 41.7402 64.1836 42.1895C64.1836 42.5215 64.1055 42.834 63.9492 43.127C63.793 43.4004 63.5195 43.6738 63.1289 43.9473C62.7578 44.2207 62.2695 44.4551 61.6641 44.6504C61.0781 44.8262 60.3066 44.9727 59.3496 45.0898C58.4121 45.1875 57.3379 45.2363 56.127 45.2363C53.2559 45.2363 50.4922 44.9629 47.8359 44.416L46.4297 44.123V45.5586V50.9492V51.9453L47.3965 52.1211C50.4238 52.6875 53.2852 52.9707 55.9805 52.9707C61.5859 52.9707 65.8242 51.6426 68.6953 48.9863C70.707 51.6621 73.3145 53 76.5176 53H77.1035M76.7227 53H78.9492C80.1406 53 81.2441 52.9512 82.2598 52.8535C83.2754 52.7559 84.2227 52.6094 85.1016 52.4141C86 52.2188 86.8105 51.9648 87.5332 51.6523C88.2754 51.3203 88.9395 50.9395 89.5254 50.5098C92.5527 48.2051 94.0762 44.4648 94.0957 39.2891C94.0957 36.3008 93.6074 33.2246 92.6309 30.0605L92.2793 29.0059L91.2246 29.2988L86.4492 30.5L85.3066 30.7637L85.5996 31.9062C86.2832 34.6602 86.625 37.1504 86.625 39.377C86.625 42.0332 85.9902 43.7324 84.7207 44.4746C83.7832 45.002 81.8594 45.2656 78.9492 45.2656H77.8359H76.7227M138.861 53H138.246C134.145 53 131.029 51.8086 128.9 49.4258C126.771 47.0234 125.707 43.5859 125.707 39.1133V12.043V10.8711H126.879H131.977H133.148V12.043V39.0547C133.148 41.2617 133.559 42.8535 134.379 43.8301C135.219 44.7871 136.537 45.2656 138.334 45.2656H138.861C139.096 45.2656 139.301 45.3047 139.477 45.3828M138.48 53H138.979C143.256 53 146.547 51.8086 148.852 49.4258C150.062 50.6758 151.781 51.584 154.008 52.1504C156.254 52.7168 159.008 53 162.27 53H163.764C176.908 53 184.311 49.4355 185.971 42.3066C186.244 41.0371 186.381 39.8262 186.381 38.6738C186.4 36.2129 185.697 33.9473 184.271 31.877C183.08 30.1777 181.605 28.8984 179.848 28.0391C178.109 27.1797 176.127 26.75 173.9 26.75C171.615 26.7305 169.32 27.3848 167.016 28.7129C164.711 30.041 162.445 31.9746 160.219 34.5137C157.992 37.0332 155.727 40.1777 153.422 43.9473C153.363 43.8691 153.295 43.7715 153.217 43.6543C153.158 43.5176 153.1 43.3613 153.041 43.1855C152.982 43.0098 152.924 42.8242 152.865 42.6289C152.826 42.4141 152.787 42.1797 152.748 41.9258C152.709 41.6719 152.68 41.3984 152.66 41.1055L152.133 34.3086L152.045 33.1074L150.844 33.2246L146.01 33.8105L144.896 33.9277L144.984 35.041L145.131 37.4434C145.287 39.6113 145.258 41.252 145.043 42.3652C144.965 42.8145 144.799 43.2148 144.545 43.5664C144.311 43.8984 143.959 44.2012 143.49 44.4746C143.041 44.7285 142.436 44.9238 141.674 45.0605C140.912 45.1973 140.014 45.2656 138.979 45.2656H138.51M9.28125 50.627C9.28125 52.7559 9.7207 54.5137 10.5996 55.9004C11.459 57.2871 12.8262 58.332 14.7012 59.0352C16.5957 59.7578 19.0176 60.1289 21.9668 60.1484C25.2676 60.1484 28.207 59.5527 30.7852 58.3613C32.0742 57.7559 33.207 56.9551 34.1836 55.959C35.0039 55.1191 35.4336 54.1328 35.4727 53C35.4727 52.8633 35.4629 52.7754 35.4434 52.7363C35.3848 52.5801 35.0137 52.502 34.3301 52.502L31.0195 52.4727C28.3438 52.4531 26.2734 51.8574 24.8086 50.6855C23.3047 49.4746 22.5527 47.7363 22.5527 45.4707C22.5527 41.4668 23.832 38.0781 26.3906 35.3047C29.6328 31.75 34.1738 29.9727 40.0137 29.9727H40.6289H41.8008V31.1738V36.7988V37.9707H40.6289H39.9844C37.0938 37.9707 34.7305 38.6152 32.8945 39.9043C31.2148 41.0762 30.3164 42.5605 30.1992 44.3574C30.1992 44.5527 30.2188 44.6602 30.2578 44.6797C30.3555 44.7773 30.6289 44.8262 31.0781 44.8262H34.5645C36.2637 44.8066 37.709 45.0605 38.9004 45.5879C40.1113 46.1152 41.0391 46.9062 41.6836 47.9609C42.3477 49.0156 42.6797 50.3047 42.6797 51.8281C42.6797 54.875 41.9082 57.5312 40.3652 59.7969C38.8223 62.0625 36.5566 63.8789 33.5684 65.2461C31.8301 66.0469 29.9844 66.6426 28.0312 67.0332C26.0586 67.4238 23.9883 67.6191 21.8203 67.6191C15.3164 67.6191 10.3555 66.1934 6.9375 63.3418C3.51953 60.4902 1.81055 56.2812 1.81055 50.7148C1.81055 46.3594 3.20703 41.0273 6 34.7188L6.46875 33.6934L7.52344 34.1328L12.1523 36.0371L13.2656 36.5059L12.7969 37.5898C10.4531 42.8828 9.28125 47.2285 9.28125 50.627ZM81.7324 20.1582L86.0098 15.8809L86.4492 15.4414L86.8887 15.8809L91.166 20.1875L91.6055 20.627L91.166 21.0664L86.918 25.3145L86.4785 25.7539L86.0391 25.3145L81.7324 21.0371L81.293 20.5977L81.7324 20.1582ZM113.051 45.0605C112.914 43.6348 112.709 42.4141 112.436 41.3984C112.162 40.3828 111.83 39.582 111.439 38.9961C111.049 38.4102 110.619 37.9902 110.15 37.7363C109.701 37.4629 109.193 37.3262 108.627 37.3262C108.197 37.3262 107.816 37.4043 107.484 37.5605C107.152 37.7168 106.83 38 106.518 38.4102C106.225 38.8203 105.961 39.3672 105.727 40.0508C105.414 40.9883 105.258 41.8574 105.258 42.6582C105.258 43.6348 105.59 44.3574 106.254 44.8262C106.918 45.2754 108.119 45.5 109.857 45.5C110.873 45.4805 111.938 45.334 113.051 45.0605ZM109.828 53.0586C106.039 53.0586 103.109 52.2188 101.039 50.5391C98.9883 48.8398 97.9629 46.3594 97.9629 43.0977C97.9629 40.5586 98.5098 38.1465 99.6035 35.8613C100.6 33.7715 101.889 32.1797 103.471 31.0859C105.072 29.9922 106.908 29.4453 108.979 29.4453C110.482 29.4453 111.85 29.7383 113.08 30.3242C114.311 30.9102 115.385 31.7598 116.303 32.873C117.24 33.9668 118.012 35.3145 118.617 36.916C119.867 40.1387 120.482 43.7422 120.463 47.7266C120.424 53.5078 118.598 58.0488 114.984 61.3496C111.391 64.6504 106.146 66.6523 99.252 67.3555L98.2559 67.4434L98.0215 66.4766L96.7617 61.4961L96.4395 60.1777L97.7871 60.0312C105.443 59.25 110.307 56.8574 112.377 52.8535C111.693 52.9316 111.156 52.9805 110.766 53C110.395 53.0391 110.082 53.0586 109.828 53.0586ZM168.598 16.7305L172.875 12.4531L173.314 12.0137L173.754 12.4531L178.031 16.7598L178.471 17.1992L178.031 17.6387L173.783 21.8867L173.344 22.3262L172.904 21.8867L168.598 17.6094L168.158 17.1699L168.598 16.7305ZM161.596 45.2656H163.939C169.174 45.2656 172.895 44.7676 175.102 43.7715C175.961 43.4004 176.654 42.9805 177.182 42.5117C177.709 42.043 178.09 41.5254 178.324 40.959C178.559 40.3926 178.686 39.748 178.705 39.0254C178.705 38.0293 178.441 37.1895 177.914 36.5059C176.996 35.3145 175.688 34.709 173.988 34.6895C172.895 34.709 171.713 35.0801 170.443 35.8027C169.193 36.5254 167.807 37.6875 166.283 39.2891C164.779 40.8711 163.217 42.8633 161.596 45.2656ZM202.963 35.7734C204.662 39.6602 205.512 43.4102 205.512 47.0234C205.512 53 203.686 57.6973 200.033 61.1152C196.381 64.5332 191.029 66.6133 183.979 67.3555L182.953 67.4727L182.719 66.4766L181.459 61.4961L181.137 60.1777L182.484 60.0312C187.816 59.5039 191.742 58.1855 194.262 56.0762C196.781 53.9863 198.031 51.0859 198.012 47.375C198.012 44.5625 197.289 41.6035 195.844 38.498L195.287 37.3262L196.518 36.8867L201.498 35.1582L202.523 34.7773L202.963 35.7734ZM266.186 23.2344L270.346 19.0742L270.785 18.6348L271.225 19.0742L275.443 23.2637L275.561 23.3809L275.707 23.2344L279.896 19.0742L280.336 18.6348L280.775 19.0742L284.965 23.2637L285.404 23.7031L284.965 24.1426L280.805 28.3027L280.365 28.7422L279.926 28.3027L275.707 24.1133L275.59 23.9961L275.443 24.1426L271.254 28.3027L270.814 28.7422L270.404 28.3027L266.186 24.1133L265.746 23.6738L266.186 23.2344ZM270.902 15.3828L275.062 11.1934L275.502 10.7539L275.941 11.1934L280.131 15.4121L280.57 15.8516L280.131 16.291L275.971 20.4512L275.531 20.8906L275.092 20.4512L270.902 16.2617L270.463 15.8223L270.902 15.3828ZM269.057 53C267.416 53 265.98 52.7266 264.75 52.1797C264.477 54.3477 263.832 56.5156 262.816 58.6836C259.75 65.0508 253.568 68.2344 244.271 68.2344C238.119 68.2344 233.432 66.7402 230.209 63.752C226.986 60.7832 225.375 56.4082 225.375 50.627C225.375 46.4668 226.391 41.9355 228.422 37.0332L228.861 35.9492L229.945 36.3887L234.604 38.293L235.658 38.7324L235.248 39.8164C233.666 43.8203 232.875 47.4043 232.875 50.5684C232.875 54.0254 233.803 56.5742 235.658 58.2148C237.533 59.875 240.473 60.7051 244.477 60.7051C248.852 60.7051 252.074 59.7383 254.145 57.8047C256.655 55.4604 257.26 52.8828 257.279 48.8398C257.279 45.4219 256.43 41.9844 254.73 38.5273L254.174 37.3262L255.404 36.8867L260.473 35.1289L261.615 34.748L261.967 35.8906L263.725 41.3105C264.018 42.209 264.398 42.9414 264.867 43.5078C265.336 44.0547 265.912 44.4648 266.596 44.7383C267.299 45.0117 268.129 45.1484 269.086 45.1484C270.727 45.1484 271.889 44.8066 272.572 44.123C273.275 43.4395 273.617 42.3066 273.598 40.7246C273.598 39.123 273.568 38.0391 273.51 37.4727L273.363 35.6855L273.275 34.543L274.389 34.4258L279.223 33.8691L280.453 33.7227L280.512 34.9531L281.01 41.7207C281.088 42.9707 281.391 43.8594 281.918 44.3867C282.445 44.8945 283.295 45.1484 284.467 45.1484C285.541 45.1289 286.332 44.7578 286.84 44.0352C287.367 43.293 287.621 41.9941 287.602 40.1387C287.602 39.6699 287.572 39.1719 287.514 38.6445C287.475 38.1172 287.406 37.5605 287.309 36.9746C287.211 36.3691 287.084 35.7344 286.928 35.0703C286.771 34.4062 286.586 33.7129 286.371 32.9902L286.049 31.8477L287.191 31.5254L292.201 30.1777L293.285 29.8848L293.637 30.9688C294.633 34.1523 295.121 37.1992 295.102 40.1094C295.102 42.4531 294.77 44.5234 294.105 46.3203C293.461 48.0977 292.475 49.5723 291.146 50.7441C290.287 51.4863 289.301 52.043 288.188 52.4141C287.074 52.7852 285.854 52.9707 284.525 52.9707C282.904 52.9707 281.469 52.707 280.219 52.1797C278.969 51.6328 277.963 50.8223 277.201 49.748C275.072 51.916 272.357 53 269.057 53ZM311.771 35.7734C313.471 39.6602 314.32 43.4102 314.32 47.0234C314.32 53 312.494 57.6973 308.842 61.1152C305.189 64.5332 299.838 66.6133 292.787 67.3555L291.762 67.4727L291.527 66.4766L290.268 61.4961L289.945 60.1777L291.293 60.0312C296.625 59.5039 300.551 58.1855 303.07 56.0762C305.59 53.9863 306.84 51.0859 306.82 47.375C306.82 44.5625 306.098 41.6035 304.652 38.498L304.096 37.3262L305.326 36.8867L310.307 35.1582L311.332 34.7773L311.771 35.7734ZM323.285 15.1191H328.354H329.525V16.1738V51.916V52.9707H328.354H323.285H322.113V51.916V16.1738V15.1191H323.285ZM323.314 9.96289C322.338 9.82617 321.4 9.97266 320.502 10.4023C319.604 10.8125 318.725 11.5156 317.865 12.5117L317.455 13.0098L317.016 12.541L314.027 8.82031L313.705 8.49805L313.969 8.08789C316.43 4.57227 319.438 3.09766 322.992 3.66406L327.357 4.36719C329.135 4.66016 331.156 4.23047 333.422 3.07812L333.949 2.81445L334.213 3.37109L336.146 7.94141L336.352 8.41016L335.912 8.70312C333.295 10.3438 330.463 10.9492 327.416 10.5195L323.314 9.96289Z" stroke="black" stroke-width="3"/>
</svg>
